# xmcd CD database file
#
# Track frame offsets:
#	150
#	17885
#	34465
#	51477
#	63295
#	85367
#	103525
#	115637
#	127247
#	152337
#	174387
#	188335
#
# Disc length: 2752 seconds
#
# Revision: 0
# Processed by: cddbd v1.4PL0 Copyright (c) Steve Scherf et al.
# Submitted via: Feurio! 1.65 - http://www.feurio.com
#
DISCID=990abe0c
DTITLE=MON DYH - confused mind
DYEAR=1900
DGENRE=
TTITLE0=confused mind
TTITLE1=blues between the birth
TTITLE2=guardian's daughter
TTITLE3=love song
TTITLE4=who'll be the next
TTITLE5=I hate ya'
TTITLE6=involuntary chase
TTITLE7=but I don't care
TTITLE8=record god
TTITLE9=sunny day
TTITLE10=heartbeat
TTITLE11=confused mind (single version)
EXTD=
EXTT0=
EXTT1=
EXTT2=
EXTT3=
EXTT4=
EXTT5=
EXTT6=
EXTT7=
EXTT8=
EXTT9=
EXTT10=
EXTT11=
PLAYORDER=
